<?xml version="1.0" encoding="UTF-8"?>
<svg width="515px" height="339px" viewBox="0 0 515 339" version="1.1" xmlns="http://www.w3.org/2000/svg" xmlns:xlink="http://www.w3.org/1999/xlink">
    <!-- Generator: Sketch 58 (84663) - https://sketch.com -->
    <title>tools</title>
    <desc>Created with Sketch.</desc>
    <g id="Ionic-Component-Library" stroke="none" stroke-width="1" fill="none" fill-rule="evenodd">
        <g id="tools">
            <rect id="Rectangle" fill="#FAFAFA" x="0" y="0" width="515" height="339"></rect>
            <g id="vscode" transform="translate(68.000000, 106.000000)" fill="#016EC5" fill-rule="nonzero">
                <path d="M95.989425,0 L95.989425,109.934481 L0,95.6776405 L95.989425,128 L127.989425,114.688358 L127.989425,15.2962685 L128,15.2914611 L127.989425,15.270307 L127.989425,13.3125997 L95.989425,0 Z M62.398079,18.7289865 L32.9971157,47.7917045 L15.296154,34.4608357 L8.0009617,36.8973921 L26.0096158,54.6994476 L8.0009617,72.5005459 L15.296154,74.9380637 L32.9971157,61.6062318 L32.9980777,61.6062318 L62.397114,90.6670284 L80.005769,83.1852394 L80.005769,26.2107736 L62.398079,18.7289865 Z M62.397114,39.4656806 L62.397114,69.9293712 L42.170193,54.6975276 L62.397114,39.4656806 Z" id="Shape"></path>
            </g>
            <path d="M258,148 L258,192" id="Line" stroke="#000000" stroke-width="8" opacity="0.62390718" stroke-linecap="square" transform="translate(258.000000, 170.000000) rotate(90.000000) translate(-258.000000, -170.000000) "></path>
            <path d="M258,148 L258,192" id="Line" stroke="#000000" stroke-width="8" opacity="0.62" stroke-linecap="square"></path>
            <g id="ionic" transform="translate(320.000000, 109.000000)" fill="#478AFF" fill-rule="nonzero">
                <path d="M61,33 C45.536027,33 33,45.536027 33,61 C33,76.463973 45.536027,89 61,89 C76.463973,89 89,76.463973 89,61 C88.9815776,45.5436642 76.4563358,33.0184224 61,33 Z" id="Path"></path>
                <circle id="Oval" cx="101.5" cy="22.5" r="12.5"></circle>
                <path d="M116.503474,35.7569159 L115.972424,34.595175 L115.142659,35.5577603 C113.066792,37.9133939 110.441852,39.7204651 107.500526,40.8187872 L106.670761,41.1175206 L107.002667,41.9473355 C116.229431,64.137884 108.316033,89.7530923 88.1810793,102.871723 C68.0461254,115.990354 41.4189721,112.87953 24.849835,95.4727961 C8.28069797,78.0660623 6.4842888,51.3164669 20.577173,31.8503299 C34.6700571,12.3841929 60.6421354,5.74056098 82.3503565,16.0488106 L83.1303354,16.4222273 L83.4705389,15.5924124 C84.7105344,12.7080718 86.6428916,10.1741935 89.0963439,8.21535738 L90.0920616,7.38554242 L88.9552839,6.7963738 C80.3191993,2.30758128 70.7250523,-0.0241937608 60.9922119,0 C33.9267554,0.0040760522 10.1006851,17.8439126 2.47562493,43.8146466 C-5.14943519,69.7853807 5.25031458,97.6752036 28.0173048,112.311768 C50.784295,126.948333 80.4730042,124.830794 100.932473,107.111113 C121.391942,89.3914329 127.728574,60.3078922 116.495176,35.6822326 L116.503474,35.7569159 Z" id="Path"></path>
            </g>
        </g>
    </g>
</svg>